<?xml version="1.0" encoding="UTF-8" standalone="no" ?>
<!DOCTYPE svg PUBLIC "-//W3C//DTD SVG 1.1//EN" "http://www.w3.org/Graphics/SVG/1.1/DTD/svg11.dtd">
<svg xmlns="http://www.w3.org/2000/svg" xmlns:xlink="http://www.w3.org/1999/xlink" version="1.1" width="16" height="16" viewBox="0 0 640 640" xml:space="preserve">
<desc>Created with Fabric.js 5.3.0</desc>
<defs>
</defs>
<g transform="matrix(2.1012907317 0 0 2.1012907317 289.6884622312 239.677622449)" id="IVHE7eus_Sea4GkLMXzxg"  >
<path style="stroke: rgb(236,164,167); stroke-width: 0; stroke-dasharray: none; stroke-linecap: butt; stroke-dashoffset: 0; stroke-linejoin: miter; stroke-miterlimit: 4; fill: rgb(0,0,0); fill-rule: nonzero; opacity: 1;"  transform=" translate(0, 0)" d="M 0 -100.47782 C 55.46376 -100.47782 100.47782 -55.46375999999999 100.47782 0 C 100.47782 55.46376 55.46375999999999 100.47782 0 100.47782 C -55.46376 100.47782 -100.47782 55.46375999999999 -100.47782 0 C -100.47782 -55.46376 -55.46375999999999 -100.47782 0 -100.47782 z" stroke-linecap="round" />
</g>
<g transform="matrix(1.3843798074 0 0 -3.003609753 164.2325619801 425.5665499803)" id="Ot69dal6Ij4PsycJBOQk7"  >
<path style="stroke: rgb(42,135,100); stroke-width: 0; stroke-dasharray: none; stroke-linecap: butt; stroke-dashoffset: 0; stroke-linejoin: miter; stroke-miterlimit: 4; fill: rgb(0,0,0); fill-rule: nonzero; opacity: 1;"  transform=" translate(0, 0)" d="M -61.88851 -61.88851 L 61.88851 -61.88851 L 61.88851 61.88851 L -61.88851 61.88851 z" stroke-linecap="round" />
</g>
<g transform="matrix(2.6495653699 0 0 2.6495653699 343.3706439783 416.7304305821)" id="4UY7oo3W0jgwTtn65EK2J"  >
<path style="stroke: none; stroke-width: 1; stroke-dasharray: none; stroke-linecap: butt; stroke-dashoffset: 0; stroke-linejoin: miter; stroke-miterlimit: 4; fill: rgb(0,0,0); fill-rule: nonzero; opacity: 1;"  transform=" translate(0, 0)" d="M -79.98879 -55.20122 C -83.15897 -60.16976 -82.08725 -66.72733 -77.50022 -70.42809 C -72.9132 -74.12885 -66.27729 -73.78972 -62.09144 -69.64062 L 81.80557999999999 72.99319999999999 L 1.805579999999992 72.99319999999999 z" stroke-linecap="round" />
</g>
<g transform="matrix(-2.6995797526 0 0 -0.5943389224 294.349293833 342.9224295858)" id="oeOZFNZ7XcgtJWcm3uPyb"  >
<path style="stroke: rgb(87,215,24); stroke-width: 0; stroke-dasharray: none; stroke-linecap: butt; stroke-dashoffset: 0; stroke-linejoin: miter; stroke-miterlimit: 4; fill: rgb(255,255,255); fill-rule: nonzero; opacity: 1;"  transform=" translate(0, 0)" d="M -36.40501 36.40501 C -36.40501 -3.8068500000000043 -29.228209999999997 -36.40500000000001 -20.375169999999997 -36.40500000000001 L 20.375170000000004 -36.40500000000001 L 20.375170000000004 -36.40500000000001 C 29.228200000000005 -36.40500000000001 36.405010000000004 -3.8068500000000114 36.405010000000004 36.40501 L 36.405010000000004 36.40501 z" stroke-linecap="round" />
</g>
<g transform="matrix(-2.7687997463 0 0 0.6095783819 287.5475848447 136.9876079133)" id="HUSk6N-AtiaKSi0bqJeBy"  >
<path style="stroke: rgb(87,215,24); stroke-width: 0; stroke-dasharray: none; stroke-linecap: butt; stroke-dashoffset: 0; stroke-linejoin: miter; stroke-miterlimit: 4; fill: rgb(255,255,255); fill-rule: nonzero; opacity: 1;"  transform=" translate(0, 0)" d="M -36.40501 36.40501 C -36.40501 -3.8068500000000043 -29.228209999999997 -36.40500000000001 -20.375169999999997 -36.40500000000001 L 20.375170000000004 -36.40500000000001 L 20.375170000000004 -36.40500000000001 C 29.228200000000005 -36.40500000000001 36.405010000000004 -3.8068500000000114 36.405010000000004 36.40501 L 36.405010000000004 36.40501 z" stroke-linecap="round" />
</g>
<g transform="matrix(-2.1427915211 2.7134690977 0.5134657607 0.4913404933 291.6446919949 240.3436970467)" id="hzER32xFVLPpWcMbMDW_2"  >
<path style="stroke: rgb(61,155,231); stroke-width: 0; stroke-dasharray: none; stroke-linecap: butt; stroke-dashoffset: 0; stroke-linejoin: miter; stroke-miterlimit: 4; fill: rgb(255,255,255); fill-rule: nonzero; opacity: 1;"  transform=" translate(0, 0)" d="M -36.40501 -36.40501 L 36.40500000000001 -36.40501 L 36.40500000000001 36.40500000000001 L -36.40501 36.40500000000001 z" stroke-linecap="round" />
</g>
</svg>